<svg xmlns="http://www.w3.org/2000/svg" viewBox="0 0 1600 900" fill="none" preserveAspectRatio="xMidYMid slice">
  <g stroke="#111111" stroke-width="1" stroke-linecap="round" stroke-linejoin="round">
    <g opacity="0.08">
      <ellipse cx="420" cy="520" rx="520" ry="340" />
      <ellipse cx="420" cy="520" rx="460" ry="300" />
      <ellipse cx="420" cy="520" rx="400" ry="260" />
      <ellipse cx="420" cy="520" rx="340" ry="220" />
      <ellipse cx="420" cy="520" rx="280" ry="180" />
      <ellipse cx="420" cy="520" rx="220" ry="140" />
      <ellipse cx="420" cy="520" rx="160" ry="100" />
      <ellipse cx="420" cy="520" rx="100" ry="60" />
    </g>
    <g opacity="0.07">
      <ellipse cx="1180" cy="280" rx="480" ry="300" />
      <ellipse cx="1180" cy="280" rx="420" ry="260" />
      <ellipse cx="1180" cy="280" rx="360" ry="220" />
      <ellipse cx="1180" cy="280" rx="300" ry="180" />
      <ellipse cx="1180" cy="280" rx="240" ry="140" />
      <ellipse cx="1180" cy="280" rx="180" ry="100" />
      <ellipse cx="1180" cy="280" rx="120" ry="65" />
    </g>
    <g opacity="0.065">
      <path d="M-40 640 C 180 560, 320 720, 520 660 S 860 580, 1080 640 S 1420 760, 1660 680" />
      <path d="M-40 700 C 200 620, 360 780, 560 720 S 900 640, 1120 700 S 1460 820, 1660 740" />
      <path d="M-40 760 C 220 680, 400 840, 600 780 S 940 700, 1160 760 S 1500 880, 1660 800" />
      <path d="M-40 580 C 160 500, 300 660, 500 600 S 840 520, 1060 580 S 1400 700, 1660 620" />
      <path d="M-40 520 C 140 440, 280 600, 480 540 S 820 460, 1040 520 S 1380 640, 1660 560" />
    </g>
    <g opacity="0.055">
      <path d="M200 -20 C 420 120, 380 280, 560 360 S 920 420, 1100 300 S 1320 80, 1500 -20" />
      <path d="M120 40 C 340 180, 300 340, 480 420 S 840 480, 1020 360 S 1240 140, 1420 40" />
      <path d="M280 100 C 500 240, 460 400, 640 480 S 1000 540, 1180 420 S 1400 200, 1580 100" />
    </g>
    <g opacity="0.075">
      <ellipse cx="820" cy="780" rx="620" ry="220" />
      <ellipse cx="820" cy="780" rx="560" ry="195" />
      <ellipse cx="820" cy="780" rx="500" ry="170" />
      <ellipse cx="820" cy="780" rx="440" ry="145" />
      <ellipse cx="820" cy="780" rx="380" ry="120" />
    </g>
    <g opacity="0.05">
      <path d="M680 120 C 760 180, 740 260, 820 300 S 980 340, 1060 260" />
      <path d="M640 160 C 720 220, 700 300, 780 340 S 940 380, 1020 300" />
      <path d="M600 200 C 680 260, 660 340, 740 380 S 900 420, 980 340" />
      <circle cx="900" cy="240" r="28" />
      <circle cx="900" cy="240" r="52" />
      <circle cx="900" cy="240" r="76" />
      <circle cx="900" cy="240" r="100" />
    </g>
  </g>
</svg>
